# xmcd
#
# Track frame offsets:
#	150
#	12063
#	23106
#	37304
#	47417
#	57192
#	65773
#	78121
#	90131
#	99944
#	110237
#	120852
#
# Disc length: 1748 seconds
#
# Revision: 0
# Processed by: cddbd v1.5.2PL0 Copyright (c) Steve Scherf et al.
# Submitted via: EasyCDDAExtractor 16.0.1.1
#
DISCID=8706d20c
DTITLE=Philomena Begley - Meet The Queen Of Country Music
DYEAR=1974
DGENRE=Truckcountry
TTITLE0=Texas In My Heart
TTITLE1=False Eyelashes
TTITLE2=Song I Can Sing
TTITLE3=Crying Steel Guitar
TTITLE4=I Apologise
TTITLE5=Lucky Old Me
TTITLE6=Honkytonkitis
TTITLE7=Where Do Babies Go
TTITLE8=I Love You Honey
TTITLE9=You Never Were Mine
TTITLE10=If I Had The Right
TTITLE11=Truckdriving Sweetheart
EXTD=
EXTT0=
EXTT1=
EXTT2=
EXTT3=
EXTT4=
EXTT5=
EXTT6=
EXTT7=
EXTT8=
EXTT9=
EXTT10=
EXTT11=
PLAYORDER=
